<svg xmlns="http://www.w3.org/2000/svg" width="710" height="240"><g fill="none" fill-rule="evenodd" opacity=".3"><g fill-rule="nonzero"><path fill="#E6E7E8" d="M66.008 42.667h89.342v102.675H66.008z"/><path fill="#4D5768" d="M157.221 38.924H64.136c-.998 0-1.871.874-1.871 1.872v106.418c0 .998.873 1.871 1.871 1.871h93.085c.998 0 1.872-.873 1.872-1.871V40.796c0-.998-.874-1.872-1.872-1.872zm-1.871 106.418H66.008V42.667h89.342v102.675z"/></g><g fill-rule="nonzero"><path fill="#6795E5" d="M94.333 84.96c.624-.375 1.372-.5 1.996-.125l14.1 7.236 11.106-10.355a2.177 2.177 0 0 1 2.12-.374l20.09 9.73V53.896H77.238v44.04L94.333 84.96z"/><path fill="#6795E5" d="M123.032 85.21l-9.109 8.607 29.697 15.346V95.19zM95.58 88.702L77.239 102.55v7.735h60.518z"/><path fill="#4D5768" d="M147.364 52.024c0-.998-.874-1.872-1.872-1.872H75.366c-.998 0-1.871.874-1.871 1.872v60.258c0 .998.873 1.87 1.871 1.87h70.75c.125 0 .25-.124.374-.124h.125c.125-.125.25-.125.374-.25v-.124c.125-.125.125-.25.25-.374 0 0 0-.125.125-.125V52.024zm-3.744 1.871v37.178l-20.089-9.731c-.749-.375-1.497-.25-2.121.374l-11.106 10.355-13.975-7.236c-.624-.374-1.372-.25-1.996.125L77.238 97.934V53.895h66.382zM77.238 102.55l18.343-13.972 42.175 21.707H77.238v-7.735zm36.685-8.733l9.234-8.608 20.588 9.98v13.849l-29.822-15.22z"/></g><g fill-rule="nonzero"><path fill="#F8C861" d="M105.313 61.88c-4.242 0-7.611 3.493-7.611 7.61 0 4.242 3.494 7.61 7.611 7.61 4.243 0 7.612-3.493 7.612-7.61 0-4.242-3.494-7.61-7.612-7.61z"/><path fill="#4D5768" d="M105.313 58.137c-6.239 0-11.355 5.115-11.355 11.353 0 6.238 5.116 11.353 11.355 11.353 6.24 0 11.355-5.115 11.355-11.353 0-6.238-5.116-11.353-11.355-11.353zm0 18.963c-4.242 0-7.611-3.493-7.611-7.61 0-4.242 3.494-7.61 7.611-7.61 4.243 0 7.612 3.493 7.612 7.61 0 4.242-3.494 7.61-7.612 7.61z"/></g><path fill="#4D5768" fill-rule="nonzero" d="M113.05 125.007H75.366c-.998 0-1.871-.874-1.871-1.872 0-.998.873-1.87 1.871-1.87h37.559c.998 0 1.871.872 1.871 1.87.125.998-.748 1.872-1.746 1.872zm32.442 11.727H75.366c-.998 0-1.871-.873-1.871-1.871s.873-1.872 1.871-1.872h70.126c.998 0 1.872.874 1.872 1.872 0 .998-.749 1.871-1.872 1.871zm-17.344-11.727h-6.738c-.998 0-1.872-.874-1.872-1.872 0-.998.874-1.87 1.872-1.87h6.738c.998 0 1.871.872 1.871 1.87 0 .998-.873 1.872-1.871 1.872z"/><g fill-rule="nonzero"><path fill="#00A285" d="M613.038 70.488h181.304V84.71H613.038z"/><path fill="#4D5768" d="M796.213 66.745H611.166c-.998 0-1.871.873-1.871 1.872v144.095c0 .997.873 1.87 1.871 1.87h185.047c.999 0 1.872-.873 1.872-1.87V68.616c0-.999-.873-1.872-1.872-1.872zm-1.871 144.095H613.038V88.453h181.304V210.84zM613.038 70.488h181.304V84.71H613.038V70.488z"/><path fill="#F2F2F2" d="M613.038 88.453h181.304V210.84H613.038z"/></g><path fill="#2D2C2E" fill-rule="nonzero" d="M627.138 79.47h-6.364c-.998 0-1.871-.873-1.871-1.871s.873-1.871 1.871-1.871h6.364c.998 0 1.872.873 1.872 1.871s-.874 1.871-1.872 1.871z"/><path fill="#4D5768" fill-rule="nonzero" d="M640.614 79.47h-6.364c-.998 0-1.871-.873-1.871-1.871s.873-1.871 1.871-1.871h6.364c.998 0 1.872.873 1.872 1.871s-.874 1.871-1.872 1.871zm13.476 0h-6.488c-.998 0-1.872-.873-1.872-1.871s.874-1.871 1.872-1.871h6.363c.999 0 1.872.873 1.872 1.871s-.749 1.871-1.747 1.871z"/><path d="M649.723 199.362c-.998 0-1.872-.873-1.872-1.871v-96.562c0-.998.874-1.872 1.872-1.872.998 0 1.872.874 1.872 1.872v96.562c0 .998-.874 1.871-1.872 1.871zm-10.981-93.692h-12.228c-.998 0-1.872-.874-1.872-1.872 0-.998.874-1.871 1.872-1.871h12.228c.999 0 1.872.873 1.872 1.871s-.873 1.871-1.872 1.871zm0 14.347h-12.228c-.998 0-1.872-.874-1.872-1.872 0-.998.874-1.871 1.872-1.871h12.228c.999 0 1.872.873 1.872 1.871s-.873 1.872-1.872 1.872zm0 14.347h-12.228c-.998 0-1.872-.874-1.872-1.872 0-.998.874-1.871 1.872-1.871h12.228c.999 0 1.872.873 1.872 1.871s-.873 1.872-1.872 1.872zm0 14.346h-12.228c-.998 0-1.872-.873-1.872-1.87 0-.999.874-1.872 1.872-1.872h12.228c.999 0 1.872.873 1.872 1.871s-.873 1.872-1.872 1.872zm0 14.223h-12.228c-.998 0-1.872-.873-1.872-1.871s.874-1.872 1.872-1.872h12.228c.999 0 1.872.874 1.872 1.872 0 .998-.873 1.871-1.872 1.871zM761.65 105.67h-95.83c-.999 0-1.872-.874-1.872-1.872 0-.998.873-1.871 1.871-1.871h95.83c.999 0 1.872.873 1.872 1.871s-.873 1.871-1.871 1.871zm-18.343 14.347h-67.755c-.998 0-1.871-.874-1.871-1.872 0-.998.873-1.871 1.871-1.871h67.755c.998 0 1.872.873 1.872 1.871s-.874 1.872-1.872 1.872zM638.742 177.28h-12.228c-.998 0-1.872-.873-1.872-1.871s.874-1.872 1.872-1.872h12.228c.999 0 1.872.874 1.872 1.872 0 .998-.873 1.871-1.872 1.871zm0 14.347h-12.228c-.998 0-1.872-.873-1.872-1.871s.874-1.872 1.872-1.872h12.228c.999 0 1.872.874 1.872 1.872 0 .998-.873 1.871-1.872 1.871zM761.65 177.28h-95.83c-.999 0-1.872-.873-1.872-1.871s.873-1.872 1.871-1.872h95.83c.999 0 1.872.874 1.872 1.872 0 .998-.873 1.871-1.871 1.871zm-18.343 14.347h-67.755c-.998 0-1.871-.873-1.871-1.871s.873-1.872 1.871-1.872h67.755c.998 0 1.872.874 1.872 1.872 0 .998-.874 1.871-1.872 1.871zm-11.604-55.891h-65.884c-.998 0-1.871-.873-1.871-1.871s.873-1.872 1.871-1.872h65.884c.998 0 1.871.874 1.871 1.872 0 .998-.873 1.87-1.871 1.87zm-44.546 12.974h-11.605c-.998 0-1.871-.873-1.871-1.87 0-.999.873-1.872 1.871-1.872h11.605c.998 0 1.871.873 1.871 1.871s-.873 1.872-1.871 1.872zm29.447 0h-21.586c-.999 0-1.872-.873-1.872-1.87 0-.999.873-1.872 1.872-1.872h21.586c.999 0 1.872.873 1.872 1.871s-.749 1.872-1.872 1.872zm62.639 14.223h-94.582c-.998 0-1.872-.873-1.872-1.871s.874-1.872 1.872-1.872h94.582c.999 0 1.872.874 1.872 1.872 0 .998-.749 1.871-1.872 1.871zm-103.691 0h-9.733c-.998 0-1.871-.873-1.871-1.871s.873-1.872 1.871-1.872h9.733c.998 0 1.872.874 1.872 1.872 0 .998-.874 1.871-1.872 1.871z" fill="#2D2C2E" fill-rule="nonzero" opacity=".2"/><path fill="#D1D3D4" fill-rule="nonzero" d="M92.71 190.38v-6.987H35.563c-.998 0-1.872-.873-1.872-1.871v-2.745a.853.853 0 0 0-.873-.873H16.72a.852.852 0 0 0-.873.873v16.094c0 .499.374.873.873.873h16.097a.852.852 0 0 0 .873-.873v-2.745c0-.998.874-1.871 1.872-1.871H92.71v.125z"/><path fill="#6795E5" fill-rule="nonzero" d="M96.454 181.522v19.587h6.988v-28.445h-6.988z"/><path fill="#F8C861" fill-rule="nonzero" d="M107.185 195.744h7.112v-7.111c0-.998.874-1.871 1.872-1.871.998 0 1.872.873 1.872 1.871v7.111h7.112v-7.111c0-.998.874-1.871 1.872-1.871.998 0 1.871.873 1.871 1.871v7.111h11.355V178.03h-33.066v17.715z"/><path fill="#4D5768" fill-rule="nonzero" d="M140.251 195.744h-11.355v-7.111c0-.998-.873-1.871-1.871-1.871s-1.872.873-1.872 1.871v7.111h-7.112v-7.111c0-.998-.874-1.871-1.872-1.871-.998 0-1.872.873-1.872 1.871v7.111h-7.112V178.03h33.066c.999 0 1.872-.874 1.872-1.872 0-.998-.873-1.871-1.872-1.871h-33.066v-3.493c0-.998-.873-1.872-1.872-1.872h-10.73c-.999 0-1.872.874-1.872 1.872v8.857H37.434v-.873a4.606 4.606 0 0 0-4.617-4.616H16.72a4.605 4.605 0 0 0-4.616 4.616v16.094a4.606 4.606 0 0 0 4.616 4.616h16.097c2.495 0 4.617-1.996 4.617-4.616v-.873H92.71v8.857c0 .998.873 1.872 1.871 1.872h10.731c.999 0 1.872-.874 1.872-1.872v-3.493h33.066c.999 0 1.872-.873 1.872-1.871s-.873-1.747-1.872-1.747zm-106.56-3.493v2.745a.853.853 0 0 1-.874.873H16.72a.853.853 0 0 1-.873-.873v-16.094c0-.5.374-.873.873-.873h16.097c.499 0 .873.374.873.873v2.745c0 .998.874 1.871 1.872 1.871H92.71v6.986H35.56c-.997-.124-1.87.624-1.87 1.747zm69.75-16.094v24.953h-6.987v-28.445h6.988v3.493z"/><g fill-rule="nonzero"><path fill="#939598" d="M548.527 111.283c0-3.493-2.87-6.237-6.239-6.237H383.82c-3.493 0-6.238 2.869-6.238 6.237v114.153h171.071V111.283h-.125zm-8.235 102.925c0 .998-.873 1.872-1.872 1.872H387.563c-.998 0-1.872-.874-1.872-1.872V113.654c0-.998.874-1.871 1.872-1.871H538.42c.999 0 1.872.873 1.872 1.87v100.555z"/><path fill="#BCBEC0" d="M375.584 229.18H364.23v6.237c0 3.493 3.37 6.238 7.487 6.238h182.551c4.118 0 7.487-2.87 7.487-6.238v-6.238h-186.17z"/><path fill="#4D5768" d="M563.626 225.436H552.27V111.283c0-5.489-4.492-9.98-9.983-9.98H383.82c-5.49 0-9.982 4.491-9.982 9.98v114.153h-11.355c-.998 0-1.871.874-1.871 1.872v8.109c0 5.49 4.99 9.98 11.23 9.98h182.551c6.239 0 11.23-4.49 11.23-9.98v-8.11c-.125-.997-.998-1.87-1.996-1.87zm-1.872 9.981c0 3.493-3.369 6.238-7.487 6.238H371.716c-4.118 0-7.487-2.87-7.487-6.238v-6.238h197.525v6.238zM377.456 111.283c0-3.493 2.87-6.237 6.239-6.237h158.469c3.494 0 6.239 2.869 6.239 6.237v114.153H377.456V111.283z"/><path fill="#6795E5" d="M389.435 115.525h147.114v96.812H389.435z"/><path fill="#4D5768" d="M538.42 111.783H387.563c-.998 0-1.872.873-1.872 1.87v100.555c0 .998.874 1.872 1.872 1.872H538.42c.999 0 1.872-.874 1.872-1.872V113.654c0-.998-.873-1.871-1.872-1.871zm-1.871 100.554H389.435v-96.812h147.114v96.812z"/></g><path fill="#4D5768" fill-rule="nonzero" d="M472.912 237.288h-19.84c-.999 0-1.872-.873-1.872-1.871s.873-1.871 1.872-1.871h19.84c.998 0 1.871.873 1.871 1.871s-.873 1.871-1.871 1.871z"/><path fill="#5880AF" fill-rule="nonzero" d="M419.756 204.851c-.998 0-1.872-.873-1.872-1.87v-78.848c0-.998.874-1.87 1.872-1.87.998 0 1.871.872 1.871 1.87v78.847c0 .998-.873 1.871-1.871 1.871z"/><path fill="#FFF" fill-rule="nonzero" d="M410.772 128.375h-9.983c-.998 0-1.871-.873-1.871-1.871s.873-1.871 1.871-1.871h9.983c.998 0 1.871.873 1.871 1.87 0 .999-.873 1.872-1.871 1.872zm0 11.727h-9.983c-.998 0-1.871-.873-1.871-1.87 0-.999.873-1.872 1.871-1.872h9.983c.998 0 1.871.873 1.871 1.871s-.873 1.871-1.871 1.871zm0 11.728h-9.983c-.998 0-1.871-.874-1.871-1.872 0-.998.873-1.871 1.871-1.871h9.983c.998 0 1.871.873 1.871 1.871s-.873 1.872-1.871 1.872zm0 11.727h-9.983c-.998 0-1.871-.874-1.871-1.872 0-.998.873-1.87 1.871-1.87h9.983c.998 0 1.871.872 1.871 1.87 0 .998-.873 1.872-1.871 1.872zm0 11.603h-9.983c-.998 0-1.871-.874-1.871-1.872 0-.998.873-1.871 1.871-1.871h9.983c.998 0 1.871.873 1.871 1.87 0 .999-.873 1.872-1.871 1.872z" opacity=".2"/><path fill="#5880AF" fill-rule="nonzero" d="M511.094 128.375h-78.236c-.999 0-1.872-.873-1.872-1.871s.873-1.871 1.872-1.871h78.236c.998 0 1.871.873 1.871 1.87 0 .999-.873 1.872-1.871 1.872z"/><path fill="#FFF" fill-rule="nonzero" d="M525.443 128.375h-7.611c-.998 0-1.872-.873-1.872-1.871s.874-1.871 1.872-1.871h7.736c.998 0 1.872.873 1.872 1.87 0 .999-.874 1.872-1.997 1.872z" opacity=".2"/><path fill="#5880AF" fill-rule="nonzero" d="M496.12 140.102h-55.277c-.998 0-1.871-.873-1.871-1.87 0-.999.873-1.872 1.871-1.872h55.277c.999 0 1.872.873 1.872 1.871s-.873 1.871-1.872 1.871z"/><path fill="#FFF" fill-rule="nonzero" d="M521.575 140.102h-19.09c-1 0-1.873-.873-1.873-1.87 0-.999.874-1.872 1.872-1.872h19.091c.998 0 1.872.873 1.872 1.871s-.749 1.871-1.872 1.871zm-110.803 46.784h-9.983c-.998 0-1.871-.873-1.871-1.871s.873-1.871 1.871-1.871h9.983c.998 0 1.871.873 1.871 1.871 0 1.123-.873 1.871-1.871 1.871z" opacity=".2"/><path fill="#5880AF" fill-rule="nonzero" d="M410.772 198.614h-9.983c-.998 0-1.871-.874-1.871-1.872 0-.998.873-1.871 1.871-1.871h9.983c.998 0 1.871.873 1.871 1.871s-.873 1.872-1.871 1.872zm100.322-11.728h-78.236c-.999 0-1.872-.873-1.872-1.871s.873-1.871 1.872-1.871h78.236c.998 0 1.871.873 1.871 1.871 0 1.123-.873 1.871-1.871 1.871z"/><path fill="#FFF" fill-rule="nonzero" d="M525.443 186.886h-7.611c-.998 0-1.872-.873-1.872-1.871s.874-1.871 1.872-1.871h7.736c.998 0 1.872.873 1.872 1.871-.125 1.123-.874 1.871-1.997 1.871z" opacity=".2"/><path fill="#5880AF" fill-rule="nonzero" d="M496.12 198.614h-55.277c-.998 0-1.871-.874-1.871-1.872 0-.998.873-1.871 1.871-1.871h55.277c.999 0 1.872.873 1.872 1.871s-.873 1.872-1.872 1.872zm25.455 0h-19.09c-1 0-1.873-.874-1.873-1.872 0-.998.874-1.871 1.872-1.871h19.091c.998 0 1.872.873 1.872 1.871s-.749 1.872-1.872 1.872zm5.865-35.057h-32.817c-.998 0-1.872-.874-1.872-1.872v-10.48c0-.997.874-1.87 1.872-1.87h32.817c.998 0 1.872.873 1.872 1.87v10.48c0 .998-.75 1.872-1.872 1.872zm-30.945-3.743h29.073v-6.737h-29.073v6.737zm-46.293 3.743h-9.483c-.999 0-1.872-.874-1.872-1.872 0-.998.873-1.87 1.872-1.87h9.483c.998 0 1.871.872 1.871 1.87 0 .998-.748 1.872-1.871 1.872zm24.207 0H456.69c-.998 0-1.871-.874-1.871-1.872 0-.998.873-1.87 1.871-1.87h17.594c.998 0 1.872.872 1.872 1.87 0 .998-.749 1.872-1.747 1.872zm51.034 11.603h-77.238c-.998 0-1.871-.874-1.871-1.872 0-.998.873-1.871 1.871-1.871h77.238c.999 0 1.872.873 1.872 1.87 0 .999-.749 1.872-1.872 1.872zm-84.6 0h-7.985c-.999 0-1.872-.874-1.872-1.872 0-.998.873-1.871 1.872-1.871h7.985c.999 0 1.872.873 1.872 1.87 0 .999-.873 1.872-1.872 1.872z"/><path fill="#F8C861" fill-rule="nonzero" d="M669.438 62.628h7.736c.999 0 1.872.873 1.872 1.872 0 .998-.873 1.87-1.872 1.87h-7.736v12.726h7.736c.999 0 1.872.873 1.872 1.871 0 .999-.873 1.872-1.872 1.872h-7.736v12.725h7.736c.999 0 1.872.873 1.872 1.871s-.873 1.872-1.872 1.872h-7.736v12.725h7.736c.999 0 1.872.873 1.872 1.871s-.873 1.872-1.872 1.872h-7.736V128.5h7.736c.999 0 1.872.873 1.872 1.871s-.873 1.872-1.872 1.872h-7.736v12.725h7.736c.999 0 1.872.873 1.872 1.871s-.873 1.872-1.872 1.872h-7.736v12.725h7.736c.999 0 1.872.873 1.872 1.871s-.873 1.872-1.872 1.872h-7.736v19.836h22.086V43.79h-22.086v18.838z"/><path fill="#4D5768" fill-rule="nonzero" d="M693.396 40.047h-25.83c-.998 0-1.871.873-1.871 1.871v144.844c0 .998.873 1.871 1.871 1.871h25.83c.998 0 1.871-.873 1.871-1.871V41.918c0-.998-.873-1.87-1.871-1.87zm-1.872 144.843h-22.086v-19.836h7.736c.999 0 1.872-.873 1.872-1.871 0-.999-.873-1.872-1.872-1.872h-7.736v-12.725h7.736c.999 0 1.872-.873 1.872-1.871s-.873-1.872-1.872-1.872h-7.736v-12.725h7.736c.999 0 1.872-.873 1.872-1.871s-.873-1.872-1.872-1.872h-7.736V115.65h7.736c.999 0 1.872-.873 1.872-1.871s-.873-1.872-1.872-1.872h-7.736V99.182h7.736c.999 0 1.872-.873 1.872-1.871s-.873-1.872-1.872-1.872h-7.736V82.714h7.736c.999 0 1.872-.873 1.872-1.871s-.873-1.872-1.872-1.872h-7.736v-12.6h7.736c.999 0 1.872-.873 1.872-1.871 0-.999-.873-1.872-1.872-1.872h-7.736V43.915h22.086V184.89z"/><g fill-rule="nonzero"><path fill="#CCC" d="M739.314 170.169h-225.35c-.874 0-1.622.748-1.622 1.622v68.492c0 .873.748 1.621 1.622 1.621h225.35c.874 0 1.622-.748 1.622-1.621V171.79c0-.874-.748-1.622-1.622-1.622z"/><path fill="#4D5768" d="M739.314 166.426h-225.35a5.325 5.325 0 0 0-5.366 5.365v68.492a5.325 5.325 0 0 0 5.366 5.364h225.35a5.325 5.325 0 0 0 5.366-5.364V171.79a5.325 5.325 0 0 0-5.366-5.365zm1.622 73.857c0 .873-.748 1.621-1.622 1.621h-225.35c-.874 0-1.622-.748-1.622-1.621V171.79c0-.874.748-1.622 1.622-1.622h225.35c.874 0 1.622.748 1.622 1.622v68.492z"/></g><g fill-rule="nonzero"><path fill="#939598" d="M521.7 228.68h9.733v3.867H521.7z"/><path fill="#4D5768" d="M533.304 224.937h-13.476c-.998 0-1.871.874-1.871 1.872v7.61c0 .998.873 1.871 1.871 1.871h13.476c.999 0 1.872-.873 1.872-1.871v-7.61c0-.998-.873-1.872-1.872-1.872zm-1.871 7.61H521.7v-3.867h9.733v3.868z"/><path fill="#939598" d="M545.159 228.68h9.733v3.867h-9.733z"/><path fill="#4D5768" d="M556.638 224.937h-13.476c-.998 0-1.872.874-1.872 1.872v7.61c0 .998.874 1.871 1.872 1.871h13.476c.998 0 1.872-.873 1.872-1.871v-7.61c0-.998-.749-1.872-1.872-1.872zm-1.872 7.61h-9.732v-3.867h9.732v3.868z"/><path fill="#939598" d="M521.7 178.403h9.109v3.867h-9.11z"/><path fill="#4D5768" d="M519.828 185.888h12.853c.998 0 1.871-.873 1.871-1.871v-7.61c0-.998-.873-1.872-1.871-1.872h-12.853c-.998 0-1.871.874-1.871 1.872v7.61c0 1.123.873 1.871 1.871 1.871zm1.872-7.485h9.109v3.867H521.7v-3.867z"/><path fill="#939598" d="M547.28 178.403h9.109v3.867h-9.11z"/><path fill="#4D5768" d="M558.26 174.66h-12.852c-.998 0-1.872.873-1.872 1.872v7.61c0 .998.874 1.871 1.872 1.871h12.852c.998 0 1.872-.873 1.872-1.871v-7.61c0-1.123-.874-1.872-1.872-1.872zm-1.872 7.486h-9.108v-3.743h9.108v3.743z"/><path fill="#939598" d="M572.859 178.403h9.109v3.867h-9.11z"/><path fill="#4D5768" d="M570.988 185.888h12.852c.998 0 1.872-.873 1.872-1.871v-7.61c0-.998-.874-1.872-1.872-1.872h-12.852c-.999 0-1.872.874-1.872 1.872v7.61c0 1.123.873 1.871 1.872 1.871zm1.871-7.485h9.11v3.867h-9.11v-3.867z"/><path fill="#939598" d="M598.439 178.403h9.109v3.867h-9.11z"/><path fill="#4D5768" d="M596.567 185.888h12.852c.999 0 1.872-.873 1.872-1.871v-7.61c0-.998-.873-1.872-1.872-1.872h-12.852c-.998 0-1.871.874-1.871 1.872v7.61c0 1.123.873 1.871 1.871 1.871zm1.872-7.485h9.109v3.867h-9.11v-3.867z"/><path fill="#939598" d="M620.774 178.403h9.109v3.867h-9.11z"/><path fill="#4D5768" d="M618.903 185.888h12.852c.998 0 1.872-.873 1.872-1.871v-7.61c0-.998-.874-1.872-1.872-1.872h-12.852c-.999 0-1.872.874-1.872 1.872v7.61c0 1.123.873 1.871 1.872 1.871zm1.871-7.485h9.11v3.867h-9.11v-3.867z"/><path fill="#939598" d="M646.354 178.403h9.109v3.867h-9.11z"/><path fill="#4D5768" d="M644.482 185.888h12.853c.998 0 1.871-.873 1.871-1.871v-7.61c0-.998-.873-1.872-1.871-1.872h-12.853c-.998 0-1.871.874-1.871 1.872v7.61c0 1.123.873 1.871 1.871 1.871zm1.872-7.485h9.109v3.867h-9.109v-3.867z"/><path fill="#939598" d="M671.934 178.403h9.109v3.867h-9.11z"/><path fill="#4D5768" d="M670.062 185.888h12.852c.998 0 1.872-.873 1.872-1.871v-7.61c0-.998-.874-1.872-1.872-1.872h-12.852c-.998 0-1.872.874-1.872 1.872v7.61c0 1.123.874 1.871 1.872 1.871zm1.872-7.485h9.108v3.867h-9.108v-3.867z"/><path fill="#939598" d="M697.513 178.403h9.109v3.867h-9.11z"/><path fill="#4D5768" d="M695.642 185.888h12.852c.998 0 1.871-.873 1.871-1.871v-7.61c0-.998-.873-1.872-1.871-1.872h-12.852c-.999 0-1.872.874-1.872 1.872v7.61c0 1.123.873 1.871 1.872 1.871zm1.871-7.485h9.11v3.867h-9.11v-3.867z"/><path fill="#939598" d="M521.7 194.746h9.109v3.867h-9.11z"/><path fill="#4D5768" d="M519.828 202.356h12.853c.998 0 1.871-.873 1.871-1.871v-7.61c0-.998-.873-1.872-1.871-1.872h-12.853c-.998 0-1.871.874-1.871 1.872v7.61c0 .998.873 1.871 1.871 1.871zm1.872-7.61h9.109v3.868H521.7v-3.868z"/><path fill="#939598" d="M547.28 194.746h9.109v3.867h-9.11z"/><path fill="#4D5768" d="M558.26 191.003h-12.852c-.998 0-1.872.874-1.872 1.872v7.61c0 .998.874 1.871 1.872 1.871h12.852c.998 0 1.872-.873 1.872-1.871v-7.61c0-.998-.874-1.872-1.872-1.872zm-1.872 7.61h-9.108v-3.867h9.108v3.868z"/><path fill="#939598" d="M572.859 194.746h9.109v3.867h-9.11z"/><path fill="#4D5768" d="M570.988 202.356h12.852c.998 0 1.872-.873 1.872-1.871v-7.61c0-.998-.874-1.872-1.872-1.872h-12.852c-.999 0-1.872.874-1.872 1.872v7.61c0 .998.873 1.871 1.872 1.871zm1.871-7.61h9.11v3.868h-9.11v-3.868z"/><path fill="#939598" d="M598.439 194.746h9.109v3.867h-9.11z"/><path fill="#4D5768" d="M596.567 202.356h12.852c.999 0 1.872-.873 1.872-1.871v-7.61c0-.998-.873-1.872-1.872-1.872h-12.852c-.998 0-1.871.874-1.871 1.872v7.61c0 .998.873 1.871 1.871 1.871zm1.872-7.61h9.109v3.868h-9.11v-3.868z"/><path fill="#939598" d="M620.774 194.746h9.109v3.867h-9.11z"/><path fill="#4D5768" d="M618.903 202.356h12.852c.998 0 1.872-.873 1.872-1.871v-7.61c0-.998-.874-1.872-1.872-1.872h-12.852c-.999 0-1.872.874-1.872 1.872v7.61c0 .998.873 1.871 1.872 1.871zm1.871-7.61h9.11v3.868h-9.11v-3.868z"/><path fill="#939598" d="M646.354 194.746h9.109v3.867h-9.11z"/><path fill="#4D5768" d="M644.482 202.356h12.853c.998 0 1.871-.873 1.871-1.871v-7.61c0-.998-.873-1.872-1.871-1.872h-12.853c-.998 0-1.871.874-1.871 1.872v7.61c0 .998.873 1.871 1.871 1.871zm1.872-7.61h9.109v3.868h-9.109v-3.868z"/><path fill="#939598" d="M671.934 194.746h9.109v3.867h-9.11z"/><path fill="#4D5768" d="M670.062 202.356h12.852c.998 0 1.872-.873 1.872-1.871v-7.61c0-.998-.874-1.872-1.872-1.872h-12.852c-.998 0-1.872.874-1.872 1.872v7.61c0 .998.874 1.871 1.872 1.871zm1.872-7.61h9.108v3.868h-9.108v-3.868z"/><path fill="#939598" d="M697.513 194.746h9.109v3.867h-9.11z"/><path fill="#4D5768" d="M695.642 202.356h12.852c.998 0 1.871-.873 1.871-1.871v-7.61c0-.998-.873-1.872-1.871-1.872h-12.852c-.999 0-1.872.874-1.872 1.872v7.61c0 .998.873 1.871 1.872 1.871zm1.871-7.61h9.11v3.868h-9.11v-3.868z"/><path fill="#939598" d="M521.7 212.337h34.688v3.867H521.7z"/><path fill="#4D5768" d="M558.26 208.594h-38.432c-.998 0-1.871.873-1.871 1.872v7.61c0 .998.873 1.871 1.871 1.871h38.432c.998 0 1.872-.873 1.872-1.871v-7.61c0-1.123-.874-1.872-1.872-1.872zm-1.872 7.61H521.7v-3.867h34.688v3.867z"/><path fill="#939598" d="M572.859 212.337h9.109v3.867h-9.11z"/><path fill="#4D5768" d="M570.988 219.947h12.852c.998 0 1.872-.873 1.872-1.871v-7.61c0-.999-.874-1.872-1.872-1.872h-12.852c-.999 0-1.872.873-1.872 1.872v7.61c0 .998.873 1.871 1.872 1.871zm1.871-7.61h9.11v3.867h-9.11v-3.867z"/><path fill="#939598" d="M598.439 212.337h9.109v3.867h-9.11z"/><path fill="#4D5768" d="M596.567 219.947h12.852c.999 0 1.872-.873 1.872-1.871v-7.61c0-.999-.873-1.872-1.872-1.872h-12.852c-.998 0-1.871.873-1.871 1.872v7.61c0 .998.873 1.871 1.871 1.871zm1.872-7.61h9.109v3.867h-9.11v-3.867z"/><path fill="#939598" d="M620.774 212.337h9.109v3.867h-9.11z"/><path fill="#4D5768" d="M618.903 219.947h12.852c.998 0 1.872-.873 1.872-1.871v-7.61c0-.999-.874-1.872-1.872-1.872h-12.852c-.999 0-1.872.873-1.872 1.872v7.61c0 .998.873 1.871 1.872 1.871zm1.871-7.61h9.11v3.867h-9.11v-3.867z"/><path fill="#939598" d="M646.354 212.337h9.109v3.867h-9.11z"/><path fill="#4D5768" d="M644.482 219.947h12.853c.998 0 1.871-.873 1.871-1.871v-7.61c0-.999-.873-1.872-1.871-1.872h-12.853c-.998 0-1.871.873-1.871 1.872v7.61c0 .998.873 1.871 1.871 1.871zm1.872-7.61h9.109v3.867h-9.109v-3.867z"/><path fill="#939598" d="M671.934 212.337h9.109v3.867h-9.11z"/><path fill="#4D5768" d="M670.062 219.947h12.852c.998 0 1.872-.873 1.872-1.871v-7.61c0-.999-.874-1.872-1.872-1.872h-12.852c-.998 0-1.872.873-1.872 1.872v7.61c0 .998.874 1.871 1.872 1.871zm1.872-7.61h9.108v3.867h-9.108v-3.867z"/><path fill="#939598" d="M699.136 228.68h9.733v3.867h-9.733z"/><path fill="#4D5768" d="M710.74 224.937h-13.476c-.999 0-1.872.874-1.872 1.872v7.61c0 .998.873 1.871 1.872 1.871h13.476c.998 0 1.872-.873 1.872-1.871v-7.61c0-.998-.874-1.872-1.872-1.872zm-1.872 7.61h-9.733v-3.867h9.733v3.868z"/><path fill="#939598" d="M568.492 228.68h118.04v3.867h-118.04z"/><path fill="#4D5768" d="M688.404 224.937H566.62c-.998 0-1.871.874-1.871 1.872v7.61c0 .998.873 1.871 1.871 1.871h121.784c.999 0 1.872-.873 1.872-1.871v-7.61c0-.998-.873-1.872-1.872-1.872zm-1.871 7.61H568.492v-3.867h118.04v3.868z"/><path fill="#939598" d="M723.218 210.466c0 .998-.874 1.87-1.872 1.87h-23.708v3.868h34.689v-21.458h-9.11v15.72z"/><path fill="#4D5768" d="M734.073 191.003h-12.852c-.998 0-1.871.874-1.871 1.872v15.72h-23.708c-.999 0-1.872.872-1.872 1.87v7.61c0 .999.873 1.872 1.872 1.872h38.431c.999 0 1.872-.873 1.872-1.871v-25.201c0-.998-.873-1.872-1.872-1.872zm-1.871 25.201h-34.689v-3.867h23.708c.998 0 1.872-.873 1.872-1.871v-15.72h9.109v21.458z"/></g><g fill-rule="nonzero"><g fill="#939598"><path d="M198.149 49.03c0-.998.873-1.872 1.871-1.872h197.525c.998 0 1.872.874 1.872 1.872v103.299h10.98V48.78c0-5.988-4.866-10.979-10.98-10.979H197.899c-5.99 0-10.98 4.866-10.98 10.98v103.672h11.105V49.03h.125z"/><path d="M413.517 155.572h-17.22V50.277H201.268v105.17h-17.344V48.78c0-7.735 6.239-14.097 14.1-14.097h201.518c7.736 0 14.1 6.237 14.1 14.097v106.792h-.125zm-10.98-6.238h4.74V48.78c0-4.242-3.493-7.86-7.86-7.86H197.899c-4.242 0-7.86 3.494-7.86 7.86v100.554h4.865V49.03c0-2.745 2.246-4.99 4.992-4.99H397.42c2.745 0 4.992 2.245 4.992 4.99v100.304h.124z"/></g><path fill="#4D5768" d="M399.417 34.059H197.899c-8.11 0-14.724 6.612-14.724 14.721v133.615c0 8.11 6.613 14.722 14.724 14.722h72.122v31.438h-8.235c-.998 0-1.872.874-1.872 1.872v10.604c0 .998.874 1.871 1.872 1.871h73.744c.998 0 1.872-.873 1.872-1.87v-10.605c0-.998-.874-1.872-1.872-1.872h-8.235v-31.438h72.122c8.11 0 14.724-6.613 14.724-14.722V48.78c0-8.11-6.614-14.721-14.724-14.721zm10.98 148.336c0 5.988-4.866 10.979-10.98 10.979H197.899c-5.99 0-10.98-4.866-10.98-10.979v-26.199h223.354v26.2h.124zm-76.739 56.765h-70v-6.862h70v6.862zm-10.107-10.73h-49.786v-31.438h49.786v31.439zM187.043 48.78c0-5.988 4.867-10.979 10.98-10.979h201.519c5.989 0 10.98 4.866 10.98 10.98v103.672h-10.98V49.03c0-.998-.874-1.872-1.872-1.872H200.02c-.998 0-1.871.874-1.871 1.872v103.299h-11.106V48.78zm208.63 103.673H201.892V50.901h193.781v101.552z"/><path fill="#CCC" d="M200.02 156.196h-12.977v26.2c0 5.987 4.867 10.978 10.98 10.978h201.519c5.989 0 10.98-4.866 10.98-10.979v-26.199H200.02z"/><path fill="#939598" d="M273.765 196.991h49.787v31.44h-49.787z"/><path fill="#D1D3D4" d="M271.893 232.173h-8.235v6.987h70v-6.987h-8.235z"/><path fill="#6795E5" d="M201.892 50.901h193.78V152.33h-193.78z"/><path fill="#F2F2F2" d="M298.72 166.052a6.842 6.842 0 0 0-6.862 6.862 6.842 6.842 0 0 0 6.862 6.861 6.842 6.842 0 0 0 6.863-6.861c0-3.743-3.12-6.862-6.863-6.862z"/><path fill="#4D5768" d="M298.72 162.31a10.596 10.596 0 0 0-10.606 10.604 10.596 10.596 0 0 0 10.606 10.604c5.865 0 10.607-4.74 10.607-10.604 0-5.74-4.742-10.605-10.607-10.605zm0 17.59a6.842 6.842 0 0 1-6.862-6.862 6.842 6.842 0 0 1 6.862-6.861 6.842 6.842 0 0 1 6.863 6.861 6.842 6.842 0 0 1-6.863 6.862z"/></g><g fill-rule="nonzero"><path fill="#6795E5" d="M216.366 4.367h164.708v13.848H216.366z"/><path fill="#4D5768" d="M382.946.624H214.495c-.999 0-1.872.873-1.872 1.871v151.83c0 .998.873 1.871 1.872 1.871h168.451c.998 0 1.872-.873 1.872-1.871V2.495c0-.998-.874-1.871-1.872-1.871zm-1.872 151.83H216.366V21.956h164.708v130.496zM216.366 4.366h164.708v13.848H216.366V4.367z"/><path fill="#F2F2F2" d="M216.366 21.957h164.708v130.496H216.366z"/><path fill="#4D5768" d="M227.596 13.224h-5.74c-.998 0-1.871-.873-1.871-1.871s.873-1.871 1.872-1.871h5.74c.998 0 1.871.873 1.871 1.87 0 .999-.873 1.872-1.872 1.872zm11.73 0h-5.74c-.998 0-1.872-.873-1.872-1.871s.874-1.871 1.872-1.871h5.74c.998 0 1.871.873 1.871 1.87 0 .999-.873 1.872-1.871 1.872zm11.729 0h-5.74c-.998 0-1.872-.873-1.872-1.871s.874-1.871 1.872-1.871h5.74c.998 0 1.872.873 1.872 1.87 0 .999-.874 1.872-1.872 1.872z"/><path fill="#DDD" d="M232.088 33.185h133.264v23.08H232.088z"/><path fill="#4D5768" d="M367.224 29.443H230.217c-.998 0-1.872.873-1.872 1.871v26.823c0 .998.874 1.871 1.872 1.871h137.007c.998 0 1.872-.873 1.872-1.871V31.314c0-1.123-.874-1.871-1.872-1.871zm-1.872 26.823H232.088v-23.08h133.264v23.08z"/><path fill="#00A285" d="M232.088 69.615h67.006v17.34h-67.006z"/><path fill="#4D5768" d="M300.966 65.872h-70.75c-.997 0-1.87.873-1.87 1.871v21.084c0 .998.873 1.872 1.87 1.872h70.75c.999 0 1.872-.874 1.872-1.872V67.743c0-.998-.873-1.871-1.872-1.871zm-1.871 21.209h-67.007V69.615h67.007V87.08z"/><path fill="#DDD" d="M310.824 69.615h21.836v17.34h-21.836z"/><path fill="#4D5768" d="M334.532 65.872h-25.58c-.998 0-1.871.873-1.871 1.871v21.084c0 .998.873 1.872 1.871 1.872h25.58c.998 0 1.872-.874 1.872-1.872V67.743c0-.998-.75-1.871-1.872-1.871zM332.66 87.08h-21.836V69.615h21.836V87.08z"/><path fill="#DDD" d="M343.391 69.739h21.836v17.34h-21.836z"/><path fill="#4D5768" d="M367.224 65.997h-25.58c-.998 0-1.871.873-1.871 1.871v21.084c0 .998.873 1.871 1.871 1.871h25.58c.998 0 1.872-.873 1.872-1.871V67.868c0-1.123-.874-1.871-1.872-1.871zm-1.872 21.084h-21.836V69.739h21.836v17.342z"/><path fill="#DDD" d="M232.089 99.93h37.558v12.85h-37.558z"/><path fill="#4D5768" d="M271.394 96.188h-41.302c-.998 0-1.872.873-1.872 1.871v16.593c0 .998.874 1.871 1.872 1.871h41.302c.998 0 1.871-.873 1.871-1.871V98.059c0-1.123-.748-1.871-1.871-1.871zm-1.872 16.468h-37.434V99.93h37.434v12.725z"/><path fill="#00A285" d="M280.003 99.93h37.558v12.85h-37.558z"/><path fill="#4D5768" d="M319.434 96.188h-41.302c-.998 0-1.872.873-1.872 1.871v16.593c0 .998.874 1.871 1.872 1.871h41.302c.998 0 1.871-.873 1.871-1.871V98.059c0-1.123-.873-1.871-1.871-1.871zm-1.872 16.468h-37.558V99.93h37.558v12.725z"/><path fill="#00A285" d="M327.794 99.93h37.558v12.85h-37.558z"/><path fill="#4D5768" d="M367.224 96.188h-41.302c-.998 0-1.872.873-1.872 1.871v16.593c0 .998.874 1.871 1.872 1.871h41.302c.998 0 1.872-.873 1.872-1.871V98.059c0-1.123-.874-1.871-1.872-1.871zm-1.872 16.468h-37.558V99.93h37.558v12.725zm-108.308 15.22h-26.827c-.998 0-1.872-.873-1.872-1.871s.874-1.872 1.872-1.872h26.827c.998 0 1.872.874 1.872 1.872 0 .998-.874 1.871-1.872 1.871zm14.35 8.608h-41.302c-.998 0-1.872-.873-1.872-1.87 0-.999.874-1.872 1.872-1.872h41.302c.998 0 1.871.873 1.871 1.871s-.748 1.871-1.871 1.871zm0 8.484h-41.302c-.998 0-1.872-.873-1.872-1.871s.874-1.872 1.872-1.872h41.302c.998 0 1.871.874 1.871 1.872 0 .998-.748 1.871-1.871 1.871zm32.692-17.092h-26.828c-.998 0-1.871-.873-1.871-1.871s.873-1.872 1.871-1.872h26.828c.998 0 1.872.874 1.872 1.872 0 .998-.874 1.871-1.872 1.871zm14.474 8.608h-41.302c-.998 0-1.871-.873-1.871-1.87 0-.999.873-1.872 1.871-1.872h41.302c.998 0 1.872.873 1.872 1.871s-.874 1.871-1.872 1.871zm0 8.484h-41.302c-.998 0-1.871-.873-1.871-1.871s.873-1.872 1.871-1.872h41.302c.998 0 1.872.874 1.872 1.872 0 .998-.874 1.871-1.872 1.871zm33.316-17.092H325.05c-.999 0-1.872-.873-1.872-1.871s.873-1.872 1.872-1.872h26.827c.998 0 1.872.874 1.872 1.872 0 .998-.874 1.871-1.872 1.871zm14.474 8.608h-41.3c-.999 0-1.872-.873-1.872-1.87 0-.999.873-1.872 1.872-1.872h41.301c.999 0 1.872.873 1.872 1.871s-.873 1.871-1.872 1.871zm0 8.484h-41.3c-.999 0-1.872-.873-1.872-1.871s.873-1.872 1.872-1.872h41.301c.999 0 1.872.874 1.872 1.872 0 .998-.873 1.871-1.872 1.871z"/></g><path fill="#D1D3D4" fill-rule="nonzero" d="M33.44 248.517l17.47-6.987v-20.21l-17.47-6.986-24.206 15.22h16.97c.873-2.994 3.493-5.115 6.738-5.115a6.976 6.976 0 0 1 6.987 6.987 6.976 6.976 0 0 1-6.987 6.986c-3.245 0-5.865-2.12-6.738-5.115H9.234l24.207 15.22z"/><path fill="#939598" fill-rule="nonzero" d="M32.942 234.668c1.746 0 3.244-1.497 3.244-3.243 0-1.747-1.498-3.244-3.244-3.244-1.747 0-3.245 1.497-3.245 3.244-.124 1.871 1.373 3.243 3.245 3.243zm21.711-12.85v19.213h3.244v-19.213z"/><path fill="#F8C861" fill-rule="nonzero" d="M61.64 221.818v10.98h63.264c.998 0 1.871.872 1.871 1.87 0 .999-.873 1.872-1.871 1.872H61.64v4.366h85.224v-19.212H61.64v.124z"/><path fill="#6B9BBF" fill-rule="nonzero" d="M150.608 221.818h1.622v19.088h-1.622z"/><path fill="#939598" fill-rule="nonzero" d="M155.849 221.818h10.481v19.088h-10.481z"/><path fill="#4D5768" fill-rule="nonzero" d="M169.574 218.7c-.374-.375-.873-.5-1.372-.5H53.156l-19.216-7.61c-.5-.25-1.123-.124-1.747.125L1.747 229.803c-.125.125-.25.125-.374.25l-.125.124-.25.25s0 .124-.125.124c0 .125-.124.25-.124.25v.998c0 .125.124.25.124.25s0 .124.125.124c0 .125.125.125.25.25l.125.125c.124.124.25.25.374.25l30.446 19.212c.25.25.624.25.998.25.25 0 .5 0 .749-.126l19.216-7.61h115.171c.998 0 1.871-.873 1.871-1.871v-22.83c0-.25-.25-.75-.624-1.123zm-3.12 22.331h-10.48v-19.088h10.48v19.088zm-15.846 0v-19.088h1.622v19.088h-1.622zm-3.743 0H61.64v-4.366h63.263c.998 0 1.871-.874 1.871-1.872 0-.998-.873-1.871-1.871-1.871H61.64v-10.979h85.224v19.088zm-88.968 0h-3.244v-19.088h3.244v19.088zm-31.693-7.735c.873 2.994 3.493 5.115 6.738 5.115a6.976 6.976 0 0 0 6.987-6.986 6.976 6.976 0 0 0-6.987-6.987c-3.245 0-5.865 2.121-6.738 5.115H9.234l24.207-15.22 17.469 6.986v20.211l-17.47 6.987-24.206-15.22h16.97zm3.369-1.871c0-1.747 1.497-3.244 3.244-3.244s3.244 1.497 3.244 3.244c0 1.746-1.497 3.243-3.244 3.243s-3.244-1.372-3.244-3.243z"/><g fill-rule="nonzero"><path fill="#D1D3D4" d="M233.212 249.64c1.247 0 2.12-.999 2.12-2.122v-91.82c-1.87 1.746-4.491 2.744-7.236 2.744h-93.584c-2.746 0-5.241-.998-7.238-2.745v91.821c0 1.248.999 2.121 2.122 2.121h103.816z"/><path fill="#7A78B4" stroke="#7A78B4" stroke-width="2" d="M134.636 154.699h93.584a7.242 7.242 0 0 0 7.238-7.236v-10.105a7.242 7.242 0 0 0-7.238-7.236h-93.584a7.242 7.242 0 0 0-7.237 7.236v10.105a7.242 7.242 0 0 0 7.237 7.236z"/><path fill="#4D5768" d="M228.22 126.504h-93.584c-5.99 0-10.98 4.865-10.98 10.979v110.16a5.857 5.857 0 0 0 5.864 5.864h103.692a5.857 5.857 0 0 0 5.864-5.864v-110.16c.125-5.989-4.866-10.98-10.856-10.98zM127.4 137.483a7.242 7.242 0 0 1 7.236-7.236h93.584a7.242 7.242 0 0 1 7.238 7.236v10.105a7.242 7.242 0 0 1-7.238 7.236h-93.584a7.242 7.242 0 0 1-7.237-7.236v-10.105zm0 110.035v-91.82c1.87 1.746 4.491 2.744 7.236 2.744h93.584c2.745 0 5.241-.998 7.238-2.745v91.821c0 1.248-.999 2.121-2.122 2.121h-103.69c-1.249 0-2.247-.873-2.247-2.12z"/></g><g fill-rule="nonzero"><path fill="#939598" d="M143.62 174.66a3.487 3.487 0 0 0 3.494-3.493c0-1.996-1.622-3.493-3.494-3.493-1.996 0-3.493 1.622-3.493 3.493 0 1.996 1.622 3.493 3.493 3.493zm76.24-6.986c-1.996 0-3.494 1.622-3.494 3.493 0 1.996 1.622 3.493 3.494 3.493a3.487 3.487 0 0 0 3.494-3.493 3.487 3.487 0 0 0-3.494-3.493z"/><path fill="#4D5768" d="M227.097 171.167a7.242 7.242 0 0 0-7.237-7.236 7.242 7.242 0 0 0-7.237 7.236c0 3.368 2.246 6.238 5.365 6.986v34.808a3.089 3.089 0 0 1-3.119 3.119h-66.133a3.089 3.089 0 0 1-3.12-3.12v-34.807c3.12-.873 5.366-3.618 5.366-6.986a7.242 7.242 0 0 0-7.237-7.236 7.242 7.242 0 0 0-7.237 7.236c0 3.368 2.246 6.238 5.365 6.986v34.808a6.842 6.842 0 0 0 6.863 6.861h66.133a6.842 6.842 0 0 0 6.863-6.861v-34.808c3.12-.748 5.365-3.618 5.365-6.986zm-83.477-3.493a3.487 3.487 0 0 1 3.494 3.493c0 1.996-1.622 3.493-3.494 3.493-1.996 0-3.493-1.622-3.493-3.493 0-1.871 1.622-3.493 3.493-3.493zm76.24 6.986c-1.996 0-3.494-1.622-3.494-3.493 0-1.996 1.622-3.493 3.494-3.493a3.487 3.487 0 0 1 3.494 3.493c0 1.996-1.497 3.493-3.494 3.493z"/></g><path d="M158.344 140.601h-18.217c-.999 0-1.872-.873-1.872-1.87 0-.999.873-1.872 1.872-1.872h18.217c.998 0 1.872.873 1.872 1.871s-.874 1.871-1.872 1.871zm15.972 0h-5.49c-.999 0-1.872-.873-1.872-1.87 0-.999.873-1.872 1.872-1.872h5.49c.998 0 1.872.873 1.872 1.871s-.75 1.871-1.872 1.871zm48.414 7.86h-67.256c-.998 0-1.871-.873-1.871-1.871s.873-1.872 1.871-1.872h67.256c.998 0 1.872.874 1.872 1.872 0 .998-.874 1.871-1.872 1.871zm-17.843-7.86h-11.48c-.998 0-1.872-.873-1.872-1.87 0-.999.874-1.872 1.872-1.872h11.48c.998 0 1.871.873 1.871 1.871s-.748 1.871-1.871 1.871z" fill="#4D5768" fill-rule="nonzero"/><g fill-rule="nonzero"><path fill="#6D6E71" d="M431.984 126.504v23.704"/><path fill="#4D5768" d="M431.984 152.08c-.998 0-1.872-.874-1.872-1.872v-23.704c0-.998.874-1.871 1.872-1.871.998 0 1.872.873 1.872 1.87v23.705c0 .998-.874 1.871-1.872 1.871z"/></g><g fill-rule="nonzero"><path fill="#6D6E71" d="M420.879 150.208h35.936"/><path fill="#4D5768" d="M456.815 152.08h-35.811c-.999 0-1.872-.874-1.872-1.872 0-.998.873-1.872 1.872-1.872h35.811c.998 0 1.872.874 1.872 1.872 0 .998-.874 1.871-1.872 1.871z"/></g><g fill-rule="nonzero"><path fill="#CCC" d="M336.778 226.809c0-3.992-3.244-7.36-7.362-7.36h-24.581c-3.993 0-7.362 3.243-7.362 7.36v8.733c0 3.992 3.244 7.36 7.362 7.36h24.58c3.994 0 7.363-3.243 7.363-7.36v-8.733zm47.915-7.361h-24.581c-3.993 0-7.362 3.244-7.362 7.36v8.734c0 3.992 3.244 7.36 7.362 7.36h24.58c3.994 0 7.363-3.243 7.363-7.36v-8.733c0-4.117-3.244-7.36-7.362-7.36z"/><path fill="#4D5768" d="M384.693 215.705h-24.581c-5.49 0-9.983 3.993-10.981 9.232h-8.86c-.873-5.24-5.49-9.232-10.855-9.232h-24.581c-6.115 0-11.106 4.99-11.106 11.104v8.733c0 6.113 4.991 11.103 11.106 11.103h24.58c6.115 0 11.106-4.99 11.106-11.103v-6.862h8.485v6.862c0 6.113 4.991 11.103 11.106 11.103h24.58c6.115 0 11.106-4.99 11.106-11.103v-8.733c0-6.113-4.99-11.104-11.105-11.104zm7.362 19.837c0 3.992-3.244 7.36-7.362 7.36h-24.581c-3.993 0-7.362-3.243-7.362-7.36v-8.733c0-3.992 3.244-7.36 7.362-7.36h24.58c3.994 0 7.363 3.243 7.363 7.36v8.733zm-62.64 7.36h-24.58c-3.993 0-7.362-3.243-7.362-7.36v-8.733c0-3.992 3.244-7.36 7.362-7.36h24.58c3.994 0 7.363 3.243 7.363 7.36v8.733c0 3.992-3.37 7.36-7.362 7.36z"/></g><path fill="#4D5768" fill-rule="nonzero" d="M306.831 236.914c-.5 0-.998-.125-1.373-.499-.748-.748-.748-1.871 0-2.62l7.737-7.735c.748-.748 1.871-.748 2.62 0 .749.749.749 1.872 0 2.62l-7.736 7.735c-.25.25-.749.5-1.248.5zm10.232-1.871c-.5 0-.998-.125-1.373-.5-.748-.748-.748-1.87 0-2.62l3.245-3.243c.748-.748 1.871-.748 2.62 0 .749.749.749 1.871 0 2.62l-3.244 3.244c-.25.374-.75.499-1.248.499zm48.664 1.871c-.5 0-.999-.125-1.373-.499-.749-.748-.749-1.871 0-2.62l7.736-7.735c.749-.748 1.872-.748 2.62 0 .75.749.75 1.872 0 2.62l-7.736 7.735c-.374.25-.748.5-1.247.5zm10.231-1.871c-.499 0-.998-.125-1.372-.5-.749-.748-.749-1.87 0-2.62l3.244-3.243c.749-.748 1.872-.748 2.62 0 .75.749.75 1.871 0 2.62l-3.244 3.244c-.25.374-.748.499-1.248.499z"/><path d="M253.3 226.684v-15.345h-8.983v34.807c1.747-.374 3.244-1.123 4.492-2.495 5.116-5.24 4.492-16.842 4.492-16.967z"/><path fill="#BCBEC0" fill-rule="nonzero" d="M239.45 253.008c.624 0 1.248-.5 1.248-1.248v-34.183h-41.302v34.183c0 .624.5 1.248 1.248 1.248h38.806z"/><path fill="#E6E7E8" fill-rule="nonzero" d="M199.272 205.101h41.302v8.733h-41.302z"/><path fill="#4D5768" fill-rule="nonzero" d="M257.044 226.684v-17.092c0-.998-.873-1.871-1.871-1.871h-10.856v-4.367c0-.998-.874-1.871-1.872-1.871H197.4c-.998 0-1.872.873-1.872 1.871v48.531c0 2.745 2.246 4.99 4.991 4.99h38.931c2.746 0 4.992-2.245 4.992-4.99v-1.871c2.745-.375 5.24-1.622 7.112-3.618 6.114-6.613 5.49-19.338 5.49-19.712zm-57.772 25.076v-34.183h41.301v34.183c0 .624-.499 1.248-1.247 1.248h-38.931c-.5 0-1.123-.624-1.123-1.248zm0-46.659h41.301v8.733h-41.301v-8.733zm45.045 41.045V211.34h8.984v15.345c0 .125.499 11.602-4.492 16.967-1.248 1.372-2.745 2.12-4.492 2.495z"/><g fill-rule="nonzero"><path fill="#6795E5" d="M458.687 57.638h172.819V68.74h-172.82z"/><path fill="#4D5768" d="M633.377 53.895H456.815c-.998 0-1.872.873-1.872 1.872v94.441c0 .998.874 1.871 1.872 1.871h176.562c.998 0 1.872-.873 1.872-1.871V55.767c0-.999-.874-1.872-1.872-1.872zm-1.872 94.441H458.687V72.484h172.818v75.852zM458.687 57.638h172.818V68.74H458.687V57.638z"/><path fill="#F2F2F2" d="M458.687 72.484h172.819v75.852h-172.82z"/><path fill="#4D5768" d="M468.919 65.123h-4.617c-.998 0-1.872-.873-1.872-1.871s.874-1.871 1.872-1.871h4.617c.998 0 1.871.873 1.871 1.87 0 .999-.748 1.872-1.871 1.872zm11.729 0h-4.617c-.998 0-1.872-.873-1.872-1.871s.874-1.871 1.872-1.871h4.617c.998 0 1.871.873 1.871 1.87 0 .999-.748 1.872-1.871 1.872zm11.729 0h-4.617c-.998 0-1.872-.873-1.872-1.871s.874-1.871 1.872-1.871h4.617c.998 0 1.872.873 1.872 1.87 0 .999-.874 1.872-1.872 1.872zm-7.487 74.855c-.998 0-1.871-.874-1.871-1.872v-53.77c0-.998.873-1.871 1.871-1.871s1.872.873 1.872 1.87v53.896c0 .873-.874 1.747-1.872 1.747zm-11.729-51.525h-5.49c-.998 0-1.872-.873-1.872-1.871 0-.999.874-1.872 1.872-1.872h5.49c.998 0 1.872.873 1.872 1.872 0 1.122-.874 1.87-1.872 1.87zm0 11.727h-5.49c-.998 0-1.872-.873-1.872-1.871s.874-1.872 1.872-1.872h5.49c.998 0 1.872.874 1.872 1.872 0 .998-.874 1.871-1.872 1.871zm0 11.727h-5.49c-.998 0-1.872-.873-1.872-1.871s.874-1.871 1.872-1.871h5.49c.998 0 1.872.873 1.872 1.87 0 .999-.874 1.872-1.872 1.872zm0 11.727h-5.49c-.998 0-1.872-.873-1.872-1.87 0-.999.874-1.872 1.872-1.872h5.49c.998 0 1.872.873 1.872 1.871s-.874 1.871-1.872 1.871zm0 11.603h-5.49c-.998 0-1.872-.873-1.872-1.871 0-.999.874-1.872 1.872-1.872h5.49c.998 0 1.872.873 1.872 1.872 0 .998-.874 1.87-1.872 1.87z"/><path fill="#F8C861" d="M514.837 88.453h-16.97c-.998 0-1.871-.873-1.871-1.871 0-.999.873-1.872 1.871-1.872h16.97c.998 0 1.872.873 1.872 1.872 0 1.122-.874 1.87-1.872 1.87zm67.381 0h-41.926c-.998 0-1.872-.873-1.872-1.871 0-.999.874-1.872 1.872-1.872h41.926c.998 0 1.871.873 1.871 1.872 0 1.122-.873 1.87-1.871 1.87zm-50.411 0h-8.984c-.998 0-1.872-.873-1.872-1.871 0-.999.874-1.872 1.872-1.872h8.984c.998 0 1.872.873 1.872 1.872 0 1.122-.874 1.87-1.872 1.87z"/><path fill="#00C6DC" d="M531.558 100.18H503.98c-.998 0-1.871-.873-1.871-1.871s.873-1.872 1.871-1.872h27.577c.998 0 1.871.874 1.871 1.872 0 .998-.873 1.871-1.871 1.871z"/><path fill="#F6635D" d="M561.754 100.18h-22.46c-.998 0-1.872-.873-1.872-1.871s.874-1.872 1.872-1.872h22.46c.998 0 1.872.874 1.872 1.872 0 .998-.749 1.871-1.872 1.871zm31.319 0h-22.46c-.998 0-1.871-.873-1.871-1.871s.873-1.872 1.871-1.872h22.46c.999 0 1.872.874 1.872 1.872 0 .998-.873 1.871-1.872 1.871zm-30.945 11.603h-22.46c-.998 0-1.872-.874-1.872-1.872 0-.998.874-1.871 1.872-1.871h22.46c.999 0 1.872.873 1.872 1.871s-.749 1.872-1.872 1.872z"/><path fill="#00C6DC" d="M529.81 111.783h-25.829c-.998 0-1.871-.874-1.871-1.872 0-.998.873-1.871 1.871-1.871h25.83c.998 0 1.871.873 1.871 1.871s-.873 1.872-1.871 1.872zm-14.723 11.851H503.98c-.998 0-1.871-.873-1.871-1.87 0-.999.873-1.872 1.871-1.872h11.106c.998 0 1.871.873 1.871 1.871s-.748 1.871-1.871 1.871z"/><path fill="#F6635D" d="M542.788 123.634h-20.714c-.998 0-1.871-.873-1.871-1.87 0-.999.873-1.872 1.871-1.872h20.714c.998 0 1.871.873 1.871 1.871s-.748 1.871-1.871 1.871zm0 11.603h-20.714c-.998 0-1.871-.873-1.871-1.871 0-.999.873-1.872 1.871-1.872h20.714c.998 0 1.871.873 1.871 1.872 0 .998-.748 1.87-1.871 1.87zm29.697 0h-20.713c-.999 0-1.872-.873-1.872-1.871 0-.999.873-1.872 1.872-1.872h20.713c.998 0 1.872.873 1.872 1.872 0 .998-.874 1.87-1.872 1.87z"/><path fill="#00C6DC" d="M513.34 135.237h-9.359c-.998 0-1.871-.873-1.871-1.871 0-.999.873-1.872 1.871-1.872h9.359c.998 0 1.872.873 1.872 1.872 0 .998-.75 1.87-1.872 1.87z"/></g><g fill-rule="nonzero"><path fill="#00C6DC" d="M643.11 103.798c-14.475 0-26.204 11.727-26.204 26.2 0 14.47 11.73 26.198 26.204 26.198s26.203-11.727 26.203-26.199c-.125-14.347-11.854-26.199-26.203-26.199z"/><path fill="#4D5768" d="M643.11 100.055c-16.471 0-29.947 13.474-29.947 29.942s13.476 29.942 29.947 29.942c16.47 0 29.947-13.474 29.947-29.942-.125-16.468-13.476-29.942-29.947-29.942zm0 56.141c-14.475 0-26.204-11.727-26.204-26.199 0-14.472 11.73-26.199 26.204-26.199s26.203 11.727 26.203 26.2c-.125 14.47-11.854 26.198-26.203 26.198z"/></g><path d="M633.252 139.479c-.499 0-.998-.125-1.372-.5l-7.487-7.485c-.374-.374-.5-.873-.5-1.372 0-.5.25-.998.5-1.372l7.487-7.486c.748-.748 1.871-.748 2.62 0 .749.749.749 1.871 0 2.62l-6.114 6.113 6.114 6.113c.749.749.749 1.872 0 2.62-.25.624-.749.749-1.248.749zm20.838 0c-.499 0-.998-.125-1.372-.5-.749-.748-.749-1.87 0-2.62l6.114-6.112-6.114-6.114c-.749-.748-.749-1.87 0-2.62.748-.748 1.871-.748 2.62 0l7.487 7.486c.748.749.748 1.871 0 2.62l-7.487 7.485c-.25.25-.749.375-1.248.375zm-15.597 1.996c-.25 0-.5 0-.749-.125-.873-.499-1.372-1.622-.873-2.495l9.109-19.088c.499-.873 1.622-1.372 2.495-.873.874.499 1.373 1.622.874 2.495l-9.11 19.088a1.991 1.991 0 0 1-1.746.998z" fill="#4D5768" fill-rule="nonzero"/><g fill-rule="nonzero"><path fill="#F8C861" d="M433.232 9.731c-20.214 0-36.81 16.468-36.81 36.803 0 15.72 9.982 29.693 24.831 34.808h7.612c.998 0 1.871.873 1.871 1.871s-.873 1.871-1.871 1.871h-6.115v18.964h20.838V83.213c0-.748.5-1.497 1.248-1.746 14.974-4.99 25.08-19.088 25.08-34.808 0-20.335-16.47-36.928-36.684-36.928z"/><path fill="#4D5768" d="M433.232 5.988c-22.336 0-40.553 18.215-40.553 40.546 0 16.967 10.481 32.063 26.328 37.927v31.189c0 .998.874 1.871 1.872 1.871h4.242v8.983c0 .998.874 1.871 1.872 1.871h12.228c.998 0 1.872-.873 1.872-1.871v-8.983h4.242c.999 0 1.872-.873 1.872-1.871V84.461c15.847-5.864 26.328-20.96 26.328-37.927.125-22.331-17.968-40.546-40.303-40.546zm10.356 107.666h-20.713v-5.988h20.838v5.988h-.125zm-6.114 10.979h-8.485v-7.112h8.485v7.112zm7.362-43.291c-.748.25-1.248.998-1.248 1.746v20.835H422.75V85.084h6.115c.998 0 1.871-.873 1.871-1.87 0-.999-.873-1.872-1.871-1.872h-7.612c-14.849-5.115-24.83-19.088-24.83-34.808 0-20.21 16.47-36.803 36.809-36.803 20.214 0 36.81 16.468 36.81 36.803-.125 15.845-10.232 29.817-25.206 34.808z"/><path fill="#939598" d="M422.75 113.654h20.838v-5.864H422.75z"/><path fill="#6D6E71" d="M428.864 117.396h8.485v7.111h-8.485z"/></g></g></svg>